<svg xmlns="http://www.w3.org/2000/svg" xmlns:xlink="http://www.w3.org/1999/xlink" width="5000" zoomAndPan="magnify" viewBox="0 0 3750 3749.999967" height="5000" preserveAspectRatio="xMidYMid meet" version="1.0"><defs><g/><clipPath id="0ee4d9ce5c"><path d="M 2753 1553 L 2837.445312 1553 L 2837.445312 1875.457031 L 2753 1875.457031 Z M 2753 1553 " clip-rule="nonzero"/></clipPath><clipPath id="fea5e1837d"><path d="M 2753 1874.691406 L 2837.445312 1874.691406 L 2837.445312 2197 L 2753 2197 Z M 2753 1874.691406 " clip-rule="nonzero"/></clipPath><clipPath id="bc97e0c423"><path d="M 1920 2793.128906 L 2038.503906 2793.128906 L 2038.503906 2837 L 1920 2837 Z M 1920 2793.128906 " clip-rule="nonzero"/></clipPath><clipPath id="a538af7e1d"><path d="M 2157.503906 1433.019531 L 2837.445312 1433.019531 L 2837.445312 2426 L 2157.503906 2426 Z M 2157.503906 1433.019531 " clip-rule="nonzero"/></clipPath><clipPath id="8ebab8fe40"><path d="M 1539 2395 L 2685.375 2395 L 2685.375 2837.234375 L 1539 2837.234375 Z M 1539 2395 " clip-rule="nonzero"/></clipPath><clipPath id="93616b3272"><path d="M 912.375 1874 L 997 1874 L 997 2197 L 912.375 2197 Z M 912.375 1874 " clip-rule="nonzero"/></clipPath><clipPath id="e918d3eaf6"><path d="M 1711.257812 2793.128906 L 1830 2793.128906 L 1830 2837 L 1711.257812 2837 Z M 1711.257812 2793.128906 " clip-rule="nonzero"/></clipPath><clipPath id="491cd2c0ac"><path d="M 912.375 1553 L 997 1553 L 997 1876 L 912.375 1876 Z M 912.375 1553 " clip-rule="nonzero"/></clipPath><clipPath id="1355eec167"><path d="M 912.375 1324 L 1593 1324 L 1593 2317 L 912.375 2317 Z M 912.375 1324 " clip-rule="nonzero"/></clipPath><clipPath id="20e613e3d4"><path d="M 1064 912.777344 L 2211 912.777344 L 2211 1355 L 1064 1355 Z M 1064 912.777344 " clip-rule="nonzero"/></clipPath><clipPath id="9b42e1bf9b"><path d="M 422.304688 2055.542969 L 3327 2055.542969 L 3327 3345.515625 L 422.304688 3345.515625 Z M 422.304688 2055.542969 " clip-rule="nonzero"/></clipPath><clipPath id="87096dceaa"><path d="M 422.304688 404.59375 L 3327 404.59375 L 3327 1694.59375 L 422.304688 1694.59375 Z M 422.304688 404.59375 " clip-rule="nonzero"/></clipPath><clipPath id="a29db759be"><path d="M 935.222656 1523 L 2814.722656 1523 L 2814.722656 2227 L 935.222656 2227 Z M 935.222656 1523 " clip-rule="nonzero"/></clipPath><clipPath id="ffe8749190"><path d="M 981 2166 L 2769 2166 L 2769 2814.722656 L 981 2814.722656 Z M 981 2166 " clip-rule="nonzero"/></clipPath><clipPath id="36b2cd247c"><path d="M 981 935.222656 L 2769 935.222656 L 2769 1584 L 981 1584 Z M 981 935.222656 " clip-rule="nonzero"/></clipPath></defs><path fill="#545454" d="M 2730.679688 2316.730469 L 2712.015625 2284.449219 L 2715.496094 2277.179688 C 2728.003906 2251.105469 2739.425781 2224.167969 2749.429688 2197.121094 L 2778.0625 2207.675781 C 2767.703125 2235.871094 2755.953125 2263.765625 2743.15625 2290.585938 L 2730.679688 2316.730469 " fill-opacity="1" fill-rule="nonzero"/><path fill="#545454" d="M 2780.871094 2199.949219 L 2752.148438 2189.636719 L 2752.527344 2188.605469 C 2752.585938 2188.433594 2752.644531 2188.257812 2752.714844 2188.082031 C 2752.882812 2187.59375 2753.054688 2187.097656 2753.230469 2186.609375 L 2781.992188 2196.824219 C 2781.808594 2197.324219 2781.625 2197.835938 2781.441406 2198.339844 C 2781.246094 2198.875 2781.0625 2199.40625 2780.871094 2199.949219 " fill-opacity="1" fill-rule="nonzero"/><g clip-path="url(#0ee4d9ce5c)"><path fill="#545454" d="M 2837.449219 1875.019531 L 2806.9375 1875.019531 C 2806.851562 1768.710938 2788.785156 1663.859375 2753.226562 1563.386719 C 2753.226562 1563.375 2753.226562 1563.375 2753.214844 1563.363281 L 2781.96875 1553.148438 C 2818.859375 1656.714844 2837.53125 1765.003906 2837.449219 1875.019531 " fill-opacity="1" fill-rule="nonzero"/></g><path fill="#545454" d="M 2591.214844 1278.824219 C 2590.316406 1277.75 2589.417969 1276.671875 2588.523438 1275.609375 C 2587.695312 1274.625 2586.871094 1273.644531 2586.039062 1272.664062 L 2609.332031 1252.949219 C 2610.179688 1253.960938 2611.035156 1254.972656 2611.890625 1256 C 2612.820312 1257.09375 2613.75 1258.199219 2614.671875 1259.304688 L 2591.214844 1278.824219 " fill-opacity="1" fill-rule="nonzero"/><path fill="#545454" d="M 2752.164062 1560.425781 C 2751.726562 1559.222656 2751.292969 1558.011719 2750.855469 1556.804688 C 2750.386719 1555.484375 2749.890625 1554.167969 2749.410156 1552.851562 L 2778.042969 1542.292969 C 2778.546875 1543.660156 2779.039062 1545.011719 2779.535156 1546.375 C 2779.980469 1547.625 2780.441406 1548.875 2780.886719 1550.121094 L 2752.164062 1560.425781 " fill-opacity="1" fill-rule="nonzero"/><path fill="#545454" d="M 2584.007812 1270.273438 C 2514.78125 1189.242188 2433 1121.160156 2340.964844 1067.941406 L 2356.226562 1041.507812 C 2451.53125 1096.4375 2535.988281 1166.746094 2607.230469 1250.472656 L 2584.007812 1270.273438 " fill-opacity="1" fill-rule="nonzero"/><path fill="#545454" d="M 2044.253906 958.640625 C 2043.730469 958.550781 2043.210938 958.453125 2042.683594 958.363281 C 2042.507812 958.328125 2042.332031 958.289062 2042.164062 958.269531 L 2041.121094 958.082031 L 2046.546875 928.050781 C 2047.078125 928.144531 2047.601562 928.238281 2048.128906 928.339844 C 2048.6875 928.4375 2049.234375 928.539062 2049.792969 928.636719 L 2044.253906 958.640625 " fill-opacity="1" fill-rule="nonzero"/><path fill="#545454" d="M 2033.253906 956.675781 C 2004.824219 951.808594 1975.789062 948.234375 1946.960938 946.039062 L 1938.9375 945.425781 L 1920.261719 913.101562 L 1949.179688 915.371094 C 1978.804688 917.707031 2008.828125 921.484375 2038.433594 926.605469 L 2033.253906 956.675781 " fill-opacity="1" fill-rule="nonzero"/><g clip-path="url(#fea5e1837d)"><path fill="#545454" d="M 2781.96875 2196.84375 L 2753.226562 2186.640625 C 2788.785156 2086.160156 2806.851562 1981.3125 2806.9375 1874.996094 L 2837.449219 1874.996094 C 2837.53125 1985.003906 2818.859375 2093.285156 2781.96875 2196.84375 " fill-opacity="1" fill-rule="nonzero"/></g><g clip-path="url(#bc97e0c423)"><path fill="#545454" d="M 1920.246094 2836.898438 L 1938.941406 2804.585938 L 1946.957031 2803.96875 C 1975.789062 2801.769531 2004.8125 2798.195312 2033.25 2793.328125 L 2038.421875 2823.394531 C 2008.824219 2828.523438 1978.792969 2832.304688 1949.179688 2834.632812 L 1920.246094 2836.898438 " fill-opacity="1" fill-rule="nonzero"/></g><path fill="#545454" d="M 2753.230469 1563.386719 C 2753.042969 1562.878906 2752.863281 1562.375 2752.691406 1561.871094 C 2752.632812 1561.710938 2752.5625 1561.550781 2752.515625 1561.390625 L 2752.148438 1560.390625 L 2780.878906 1550.09375 C 2781.0625 1550.585938 2781.234375 1551.078125 2781.40625 1551.582031 C 2781.601562 1552.109375 2781.785156 1552.648438 2781.980469 1553.175781 L 2753.230469 1563.386719 " fill-opacity="1" fill-rule="nonzero"/><path fill="#545454" d="M 2046.554688 2821.964844 L 2041.117188 2791.9375 L 2042.242188 2791.730469 C 2042.414062 2791.699219 2042.570312 2791.679688 2042.730469 2791.648438 C 2043.242188 2791.558594 2043.746094 2791.457031 2044.257812 2791.367188 L 2049.796875 2821.375 C 2049.253906 2821.472656 2048.71875 2821.574219 2048.1875 2821.671875 C 2047.636719 2821.761719 2047.097656 2821.863281 2046.554688 2821.964844 " fill-opacity="1" fill-rule="nonzero"/><path fill="#545454" d="M 2749.417969 1552.878906 C 2739.414062 1525.824219 2728.003906 1498.894531 2715.496094 1472.820312 L 2712.003906 1465.566406 L 2730.679688 1433.28125 L 2743.15625 1459.421875 C 2755.953125 1486.234375 2767.691406 1514.125 2778.050781 1542.324219 L 2749.417969 1552.878906 " fill-opacity="1" fill-rule="nonzero"/><path fill="#545454" d="M 2609.332031 2497.050781 L 2586.039062 2477.335938 C 2586.878906 2476.335938 2587.738281 2475.335938 2588.585938 2474.328125 C 2589.460938 2473.28125 2590.335938 2472.230469 2591.214844 2471.179688 L 2614.671875 2490.699219 C 2613.769531 2491.78125 2612.859375 2492.855469 2611.964844 2493.933594 C 2611.089844 2494.980469 2610.210938 2496.015625 2609.332031 2497.050781 " fill-opacity="1" fill-rule="nonzero"/><path fill="#545454" d="M 2356.21875 2708.5 L 2340.953125 2682.078125 C 2432.996094 2628.847656 2514.765625 2560.773438 2584.003906 2479.730469 L 2607.21875 2499.535156 C 2535.972656 2583.261719 2451.535156 2653.5625 2356.21875 2708.5 " fill-opacity="1" fill-rule="nonzero"/><path fill="#545454" d="M 2778.042969 2207.707031 L 2749.410156 2197.152344 C 2749.867188 2195.910156 2750.328125 2194.667969 2750.785156 2193.421875 C 2751.246094 2192.148438 2751.703125 2190.882812 2752.148438 2189.609375 L 2780.871094 2199.921875 C 2780.40625 2201.226562 2779.933594 2202.539062 2779.460938 2203.84375 C 2778.996094 2205.132812 2778.523438 2206.421875 2778.042969 2207.707031 " fill-opacity="1" fill-rule="nonzero"/><g clip-path="url(#a538af7e1d)"><path fill="#545454" d="M 2210.558594 2395.148438 L 2648.054688 2395.148438 C 2659.960938 2377.425781 2671.316406 2359.203125 2681.910156 2340.859375 C 2693.828125 2320.214844 2705.128906 2298.796875 2715.496094 2277.179688 C 2728.003906 2251.105469 2739.421875 2224.167969 2749.421875 2197.121094 C 2750.34375 2194.648438 2751.253906 2192.148438 2752.148438 2189.636719 C 2752.515625 2188.609375 2752.882812 2187.605469 2753.238281 2186.609375 C 2788.785156 2086.160156 2806.863281 1981.3125 2806.933594 1874.996094 C 2806.863281 1768.695312 2788.785156 1663.839844 2753.214844 1563.351562 C 2752.871094 1562.382812 2752.515625 1561.402344 2752.175781 1560.421875 C 2751.253906 1557.871094 2750.34375 1555.359375 2749.421875 1552.84375 C 2742.789062 1534.90625 2735.523438 1517.015625 2727.730469 1499.371094 Z M 2664.199219 2425.660156 L 2157.710938 2425.660156 L 2730.492188 1433.558594 L 2743 1459.621094 C 2755.933594 1486.546875 2767.714844 1514.355469 2778.046875 1542.296875 C 2779.003906 1544.917969 2779.960938 1547.515625 2780.894531 1550.113281 C 2781.246094 1551.105469 2781.613281 1552.132812 2781.980469 1553.148438 L 2781.980469 1553.171875 C 2818.707031 1656.929688 2837.378906 1765.203125 2837.449219 1874.996094 C 2837.367188 1984.804688 2818.707031 2093.070312 2781.992188 2196.816406 C 2781.613281 2197.875 2781.246094 2198.914062 2780.871094 2199.949219 C 2779.953125 2202.507812 2779.003906 2205.09375 2778.058594 2207.675781 C 2767.714844 2235.644531 2755.933594 2263.457031 2743 2290.382812 C 2732.300781 2312.695312 2720.632812 2334.808594 2708.328125 2356.117188 C 2696.023438 2377.425781 2682.714844 2398.589844 2668.742188 2419.019531 L 2664.199219 2425.660156 " fill-opacity="1" fill-rule="nonzero"/></g><path fill="#545454" d="M 2049.761719 2821.382812 L 2044.222656 2791.371094 C 2149.019531 2771.9375 2248.871094 2735.152344 2340.980469 2682.058594 L 2356.242188 2708.484375 C 2261.015625 2763.558594 2157.894531 2801.546875 2049.761719 2821.382812 " fill-opacity="1" fill-rule="nonzero"/><path fill="#545454" d="M 2038.390625 2823.40625 L 2033.21875 2793.332031 C 2034.578125 2793.097656 2035.933594 2792.859375 2037.292969 2792.625 C 2038.582031 2792.394531 2039.863281 2792.164062 2041.152344 2791.929688 L 2046.582031 2821.953125 C 2045.25 2822.199219 2043.914062 2822.433594 2042.578125 2822.671875 C 2041.183594 2822.921875 2039.785156 2823.167969 2038.390625 2823.40625 " fill-opacity="1" fill-rule="nonzero"/><path fill="#545454" d="M 1142.832031 2499.554688 C 1142.441406 2499.105469 1142.054688 2498.648438 1141.667969 2498.191406 C 1141.339844 2497.804688 1141.011719 2497.421875 1140.683594 2497.03125 L 1163.96875 2477.3125 L 1163.988281 2477.335938 C 1163.992188 2477.335938 1163.996094 2477.34375 1164 2477.34375 L 1164.652344 2478.113281 C 1164.746094 2478.230469 1164.839844 2478.332031 1164.929688 2478.449219 C 1165.304688 2478.886719 1165.671875 2479.320312 1166.046875 2479.753906 L 1142.832031 2499.554688 " fill-opacity="1" fill-rule="nonzero"/><path fill="#545454" d="M 1711.648438 2823.40625 C 1710.292969 2823.175781 1708.953125 2822.9375 1707.601562 2822.703125 C 1706.214844 2822.457031 1704.824219 2822.207031 1703.429688 2821.953125 L 1708.871094 2791.929688 C 1710.203125 2792.175781 1711.546875 2792.410156 1712.890625 2792.648438 C 1714.199219 2792.882812 1715.503906 2793.105469 1716.816406 2793.332031 L 1711.648438 2823.40625 " fill-opacity="1" fill-rule="nonzero"/><path fill="#545454" d="M 1135.390625 2490.722656 C 1116.152344 2467.65625 1097.867188 2443.535156 1081.035156 2419.042969 L 1064.617188 2395.152344 L 1101.9375 2395.152344 L 1106.480469 2401.792969 C 1122.800781 2425.664062 1140.417969 2449.011719 1158.84375 2471.210938 L 1135.390625 2490.722656 " fill-opacity="1" fill-rule="nonzero"/><path fill="#545454" d="M 1700.277344 2821.382812 C 1592.136719 2801.546875 1489.015625 2763.558594 1393.78125 2708.484375 L 1409.039062 2682.058594 C 1501.160156 2735.152344 1601.003906 2771.9375 1705.808594 2791.371094 L 1700.277344 2821.382812 " fill-opacity="1" fill-rule="nonzero"/><path fill="#545454" d="M 2614.632812 2490.722656 L 2591.1875 2471.210938 C 2609.609375 2449.019531 2627.230469 2425.664062 2643.554688 2401.796875 L 2648.101562 2395.152344 L 2685.40625 2395.152344 L 2668.992188 2419.042969 C 2652.160156 2443.535156 2633.875 2467.65625 2614.632812 2490.722656 " fill-opacity="1" fill-rule="nonzero"/><path fill="#545454" d="M 2607.203125 2499.550781 L 2583.976562 2479.761719 C 2584.3125 2479.375 2584.632812 2478.992188 2584.957031 2478.609375 C 2585.09375 2478.449219 2585.226562 2478.289062 2585.363281 2478.136719 L 2586.0625 2477.316406 L 2609.347656 2497.03125 C 2608.972656 2497.46875 2608.597656 2497.90625 2608.222656 2498.351562 C 2607.890625 2498.75 2607.546875 2499.152344 2607.203125 2499.550781 " fill-opacity="1" fill-rule="nonzero"/><g clip-path="url(#8ebab8fe40)"><path fill="#545454" d="M 1811.078125 2804.546875 C 1832.367188 2805.988281 1853.835938 2806.722656 1875.019531 2806.722656 C 1898.851562 2806.722656 1923.054688 2805.796875 1946.960938 2803.96875 C 1975.789062 2801.769531 2004.808594 2798.195312 2033.253906 2793.324219 C 2035.855469 2792.875 2038.496094 2792.417969 2041.128906 2791.9375 C 2042.195312 2791.75 2043.214844 2791.558594 2044.257812 2791.367188 C 2149.019531 2771.9375 2248.863281 2735.152344 2340.992188 2682.058594 C 2432.996094 2628.847656 2514.769531 2560.773438 2584.003906 2479.730469 C 2584.667969 2478.953125 2585.351562 2478.152344 2586.039062 2477.339844 C 2587.777344 2475.277344 2589.496094 2473.230469 2591.203125 2471.179688 C 2603.425781 2456.464844 2615.300781 2441.222656 2626.675781 2425.664062 L 1592.328125 2425.664062 Z M 1875.019531 2837.234375 C 1850.410156 2837.234375 1825.417969 2836.28125 1800.75 2834.398438 L 1792.726562 2833.777344 L 1539.480469 2395.148438 L 2685.058594 2395.148438 L 2668.734375 2419.019531 C 2651.882812 2443.664062 2633.6875 2467.785156 2614.671875 2490.699219 C 2612.875 2492.84375 2611.113281 2494.957031 2609.316406 2497.054688 C 2608.632812 2497.863281 2607.9375 2498.695312 2607.234375 2499.527344 C 2535.710938 2583.230469 2451.285156 2653.523438 2356.246094 2708.484375 C 2261.101562 2763.324219 2158.003906 2801.296875 2049.785156 2821.375 C 2048.683594 2821.574219 2047.621094 2821.773438 2046.554688 2821.964844 C 2043.859375 2822.453125 2041.148438 2822.929688 2038.417969 2823.394531 C 2009.027344 2828.421875 1979.042969 2832.125 1949.28125 2834.398438 C 1924.609375 2836.28125 1899.617188 2837.234375 1875.019531 2837.234375 " fill-opacity="1" fill-rule="nonzero"/></g><path fill="#545454" d="M 996.796875 1563.410156 L 968.046875 1553.1875 C 968.234375 1552.652344 968.425781 1552.125 968.617188 1551.585938 C 968.796875 1551.082031 968.980469 1550.574219 969.160156 1550.070312 L 997.882812 1560.375 L 997.511719 1561.410156 C 997.457031 1561.554688 997.40625 1561.703125 997.351562 1561.855469 C 997.164062 1562.375 996.984375 1562.886719 996.796875 1563.410156 " fill-opacity="1" fill-rule="nonzero"/><path fill="#545454" d="M 1000.601562 1552.875 L 971.972656 1542.324219 C 982.335938 1514.125 994.078125 1486.234375 1006.875 1459.414062 L 1019.359375 1433.253906 L 1038.019531 1465.5625 L 1034.535156 1472.824219 C 1022.023438 1498.886719 1010.609375 1525.824219 1000.601562 1552.875 " fill-opacity="1" fill-rule="nonzero"/><path fill="#545454" d="M 1140.703125 2497.054688 C 1139.816406 2496.007812 1138.933594 2494.957031 1138.054688 2493.910156 C 1137.15625 2492.84375 1136.261719 2491.777344 1135.367188 2490.699219 L 1158.824219 2471.1875 C 1159.691406 2472.226562 1160.558594 2473.261719 1161.433594 2474.300781 C 1162.28125 2475.316406 1163.136719 2476.328125 1163.988281 2477.335938 L 1140.703125 2497.054688 " fill-opacity="1" fill-rule="nonzero"/><path fill="#545454" d="M 1703.460938 2821.964844 C 1702.925781 2821.863281 1702.390625 2821.761719 1701.859375 2821.671875 C 1701.324219 2821.574219 1700.78125 2821.472656 1700.238281 2821.375 L 1705.785156 2791.371094 C 1705.792969 2791.371094 1705.804688 2791.371094 1705.808594 2791.371094 C 1705.816406 2791.371094 1705.816406 2791.371094 1705.816406 2791.371094 C 1706.320312 2791.464844 1706.824219 2791.558594 1707.328125 2791.65625 C 1707.511719 2791.6875 1707.703125 2791.714844 1707.882812 2791.753906 L 1708.898438 2791.9375 L 1703.460938 2821.964844 " fill-opacity="1" fill-rule="nonzero"/><g clip-path="url(#93616b3272)"><path fill="#545454" d="M 968.058594 2196.863281 C 968.054688 2196.847656 968.050781 2196.847656 968.050781 2196.832031 C 931.164062 2093.28125 912.503906 1984.988281 912.585938 1874.992188 L 943.097656 1874.992188 C 943.175781 1981.3125 961.246094 2086.171875 996.8125 2186.648438 L 968.058594 2196.863281 " fill-opacity="1" fill-rule="nonzero"/></g><path fill="#545454" d="M 971.988281 2207.71875 C 971.507812 2206.414062 971.027344 2205.101562 970.550781 2203.796875 C 970.078125 2202.492188 969.609375 2201.195312 969.144531 2199.890625 L 997.863281 2189.585938 C 997.863281 2189.601562 997.871094 2189.605469 997.875 2189.617188 C 998.320312 2190.859375 998.769531 2192.105469 999.222656 2193.347656 C 999.683594 2194.617188 1000.152344 2195.894531 1000.617188 2197.160156 L 971.988281 2207.71875 " fill-opacity="1" fill-rule="nonzero"/><path fill="#545454" d="M 1393.804688 2708.492188 C 1298.496094 2653.5625 1214.050781 2583.261719 1142.808594 2499.535156 L 1166.027344 2479.742188 C 1235.253906 2560.765625 1317.011719 2628.839844 1409.039062 2682.058594 C 1409.046875 2682.058594 1409.054688 2682.070312 1409.058594 2682.070312 L 1393.804688 2708.492188 " fill-opacity="1" fill-rule="nonzero"/><g clip-path="url(#e918d3eaf6)"><path fill="#545454" d="M 1829.78125 2836.898438 L 1800.859375 2834.632812 C 1771.234375 2832.304688 1741.210938 2828.523438 1711.613281 2823.40625 L 1716.785156 2793.328125 C 1745.214844 2798.195312 1774.242188 2801.769531 1803.070312 2803.96875 L 1811.09375 2804.585938 L 1829.78125 2836.898438 " fill-opacity="1" fill-rule="nonzero"/></g><path fill="#545454" d="M 1038.039062 2284.40625 C 1047.433594 2303.558594 1057.535156 2322.523438 1068.125 2340.859375 C 1080.039062 2361.503906 1092.941406 2382 1106.480469 2401.792969 C 1122.800781 2425.664062 1140.417969 2449.011719 1158.84375 2471.210938 C 1160.535156 2473.230469 1162.246094 2475.277344 1163.972656 2477.3125 C 1164.671875 2478.144531 1165.359375 2478.953125 1166.046875 2479.753906 C 1235.257812 2560.773438 1317.027344 2628.847656 1409.058594 2682.070312 C 1501.160156 2735.152344 1601.003906 2771.9375 1705.808594 2791.371094 C 1706.816406 2791.558594 1707.839844 2791.75 1708.871094 2791.929688 C 1711.539062 2792.417969 1714.175781 2792.875 1716.816406 2793.332031 C 1735.667969 2796.5625 1754.796875 2799.222656 1773.960938 2801.289062 L 1256.789062 1905.519531 Z M 1829.578125 2836.59375 L 1800.75 2834.398438 C 1770.984375 2832.125 1741.007812 2828.421875 1711.648438 2823.40625 C 1708.882812 2822.929688 1706.160156 2822.453125 1703.429688 2821.953125 C 1702.398438 2821.773438 1701.332031 2821.574219 1700.273438 2821.382812 C 1592.03125 2801.304688 1488.925781 2763.324219 1393.804688 2708.492188 C 1298.746094 2653.523438 1214.316406 2583.230469 1142.832031 2499.554688 C 1142.101562 2498.703125 1141.394531 2497.871094 1140.683594 2497.03125 C 1138.921875 2494.949219 1137.152344 2492.835938 1135.390625 2490.722656 C 1116.339844 2467.785156 1098.144531 2443.664062 1081.292969 2419.019531 C 1067.324219 2398.589844 1054 2377.421875 1041.699219 2356.117188 C 1029.398438 2334.804688 1017.730469 2312.6875 1007.027344 2290.386719 L 1003.542969 2283.128906 L 1256.789062 1844.492188 L 1829.578125 2836.59375 " fill-opacity="1" fill-rule="nonzero"/><path fill="#545454" d="M 1019.359375 2316.757812 L 1006.875 2290.589844 C 994.082031 2263.785156 982.347656 2235.902344 971.988281 2207.71875 C 971.984375 2207.703125 971.980469 2207.695312 971.976562 2207.6875 L 1000.605469 2197.128906 C 1010.613281 2224.1875 1022.027344 2251.113281 1034.535156 2277.179688 L 1038.019531 2284.441406 L 1019.359375 2316.757812 " fill-opacity="1" fill-rule="nonzero"/><path fill="#545454" d="M 1166.023438 1270.285156 L 1142.804688 1250.484375 C 1214.046875 1166.757812 1298.5 1096.449219 1393.8125 1041.507812 L 1409.066406 1067.941406 C 1409.0625 1067.941406 1409.054688 1067.941406 1409.046875 1067.949219 C 1317.015625 1121.171875 1235.253906 1189.242188 1166.023438 1270.285156 " fill-opacity="1" fill-rule="nonzero"/><path fill="#545454" d="M 969.15625 2199.921875 C 968.976562 2199.433594 968.800781 2198.9375 968.625 2198.441406 C 968.429688 2197.90625 968.238281 2197.375 968.050781 2196.832031 L 996.800781 2186.625 C 996.984375 2187.128906 997.164062 2187.640625 997.347656 2188.152344 C 997.398438 2188.304688 997.457031 2188.457031 997.511719 2188.609375 L 997.875 2189.617188 L 969.15625 2199.921875 " fill-opacity="1" fill-rule="nonzero"/><path fill="#545454" d="M 1705.769531 958.640625 L 1700.230469 928.636719 C 1700.796875 928.539062 1701.355469 928.4375 1701.910156 928.332031 C 1702.4375 928.238281 1702.953125 928.144531 1703.480469 928.050781 L 1708.90625 958.082031 L 1707.875 958.257812 C 1707.707031 958.289062 1707.539062 958.328125 1707.371094 958.351562 C 1706.835938 958.453125 1706.304688 958.550781 1705.769531 958.640625 " fill-opacity="1" fill-rule="nonzero"/><path fill="#545454" d="M 997.871094 1560.398438 L 969.152344 1550.09375 C 969.609375 1548.8125 970.074219 1547.535156 970.535156 1546.261719 C 971.015625 1544.9375 971.496094 1543.617188 971.984375 1542.300781 L 1000.617188 1552.859375 C 1000.144531 1554.136719 999.675781 1555.414062 999.207031 1556.695312 C 998.761719 1557.933594 998.316406 1559.164062 997.871094 1560.398438 " fill-opacity="1" fill-rule="nonzero"/><path fill="#545454" d="M 1158.820312 1278.832031 L 1135.367188 1259.316406 C 1136.289062 1258.207031 1137.214844 1257.097656 1138.144531 1255.988281 C 1139 1254.980469 1139.855469 1253.960938 1140.710938 1252.949219 L 1164 1272.660156 C 1163.171875 1273.640625 1162.351562 1274.613281 1161.527344 1275.597656 C 1160.621094 1276.675781 1159.722656 1277.753906 1158.820312 1278.832031 " fill-opacity="1" fill-rule="nonzero"/><path fill="#545454" d="M 1716.78125 956.675781 L 1711.601562 926.605469 C 1741.207031 921.484375 1771.230469 917.707031 1800.859375 915.371094 L 1829.769531 913.101562 L 1811.097656 945.425781 L 1803.070312 946.039062 C 1774.242188 948.234375 1745.210938 951.808594 1716.78125 956.675781 " fill-opacity="1" fill-rule="nonzero"/><g clip-path="url(#491cd2c0ac)"><path fill="#545454" d="M 943.097656 1875.019531 L 912.585938 1875.019531 C 912.503906 1765.015625 931.164062 1656.726562 968.050781 1553.167969 L 996.808594 1563.375 C 996.804688 1563.386719 996.800781 1563.390625 996.796875 1563.410156 C 961.242188 1663.871094 943.175781 1768.707031 943.097656 1875.019531 " fill-opacity="1" fill-rule="nonzero"/></g><g clip-path="url(#1355eec167)"><path fill="#545454" d="M 1101.976562 1354.851562 C 1090.082031 1372.570312 1078.714844 1390.800781 1068.128906 1409.140625 C 1056.207031 1429.792969 1044.90625 1451.214844 1034.535156 1472.820312 C 1022.023438 1498.894531 1010.609375 1525.828125 1000.601562 1552.882812 C 999.695312 1555.351562 998.78125 1557.859375 997.882812 1560.363281 C 997.511719 1561.394531 997.152344 1562.394531 996.796875 1563.398438 C 961.246094 1663.84375 943.175781 1768.695312 943.097656 1875.007812 C 943.175781 1981.308594 961.246094 2086.167969 996.8125 2186.644531 C 997.152344 2187.605469 997.507812 2188.597656 997.863281 2189.582031 C 998.777344 2192.128906 999.695312 2194.648438 1000.617188 2197.15625 C 1007.253906 2215.097656 1014.511719 2232.996094 1022.304688 2250.632812 L 1539.480469 1354.851562 Z M 1019.535156 2316.445312 L 1007.027344 2290.382812 C 994.109375 2263.464844 982.320312 2235.648438 971.988281 2207.714844 C 971.023438 2205.089844 970.074219 2202.492188 969.144531 2199.886719 C 968.785156 2198.898438 968.421875 2197.882812 968.058594 2196.859375 C 931.328125 2093.078125 912.664062 1984.800781 912.585938 1875.007812 C 912.664062 1765.199219 931.324219 1656.929688 968.042969 1553.191406 C 968.421875 1552.121094 968.792969 1551.09375 969.160156 1550.0625 C 970.078125 1547.5 971.027344 1544.910156 971.972656 1542.332031 C 982.320312 1514.355469 994.109375 1486.539062 1007.027344 1459.625 C 1017.730469 1437.320312 1029.398438 1415.203125 1041.699219 1393.890625 C 1054.003906 1372.570312 1067.328125 1351.410156 1081.292969 1330.992188 L 1085.835938 1324.34375 L 1592.332031 1324.34375 L 1019.535156 2316.445312 " fill-opacity="1" fill-rule="nonzero"/></g><path fill="#545454" d="M 2340.992188 1067.949219 C 2248.863281 1014.863281 2149.027344 978.082031 2044.222656 958.644531 L 2049.761719 928.632812 C 2157.894531 948.46875 2261.015625 986.457031 2356.234375 1041.519531 L 2340.992188 1067.949219 " fill-opacity="1" fill-rule="nonzero"/><path fill="#545454" d="M 2685.40625 1354.863281 L 2648.101562 1354.863281 L 2643.554688 1348.214844 C 2627.230469 1324.34375 2609.609375 1300.992188 2591.1875 1278.804688 L 2614.632812 1259.292969 C 2633.875 1282.359375 2652.160156 1306.472656 2668.992188 1330.964844 L 2685.40625 1354.863281 " fill-opacity="1" fill-rule="nonzero"/><path fill="#545454" d="M 2586.0625 1272.695312 L 2585.320312 1271.820312 C 2585.175781 1271.664062 2585.039062 1271.496094 2584.90625 1271.339844 C 2584.605469 1270.976562 2584.292969 1270.613281 2583.976562 1270.25 L 2607.203125 1250.460938 C 2607.535156 1250.835938 2607.847656 1251.21875 2608.171875 1251.59375 C 2608.566406 1252.0625 2608.960938 1252.519531 2609.347656 1252.976562 L 2586.0625 1272.695312 " fill-opacity="1" fill-rule="nonzero"/><path fill="#545454" d="M 1101.933594 1354.867188 L 1064.621094 1354.867188 L 1081.035156 1330.964844 C 1097.863281 1306.472656 1116.148438 1282.359375 1135.386719 1259.292969 L 1158.839844 1278.804688 C 1140.414062 1301.003906 1122.796875 1324.355469 1106.480469 1348.214844 L 1101.933594 1354.867188 " fill-opacity="1" fill-rule="nonzero"/><path fill="#545454" d="M 1163.976562 1272.699219 L 1140.695312 1252.972656 C 1141.058594 1252.535156 1141.425781 1252.105469 1141.789062 1251.679688 C 1142.136719 1251.269531 1142.480469 1250.863281 1142.824219 1250.460938 L 1166.039062 1270.261719 C 1165.707031 1270.652344 1165.375 1271.039062 1165.042969 1271.441406 C 1164.925781 1271.578125 1164.804688 1271.714844 1164.691406 1271.847656 L 1163.976562 1272.699219 " fill-opacity="1" fill-rule="nonzero"/><path fill="#545454" d="M 1409.046875 1067.949219 L 1393.792969 1041.519531 C 1489.023438 986.457031 1592.132812 948.46875 1700.261719 928.632812 L 1705.800781 958.644531 C 1601.003906 978.082031 1501.160156 1014.863281 1409.046875 1067.949219 " fill-opacity="1" fill-rule="nonzero"/><path fill="#545454" d="M 2041.144531 958.078125 C 2039.855469 957.847656 2038.566406 957.609375 2037.277344 957.386719 C 2035.925781 957.144531 2034.570312 956.90625 2033.21875 956.671875 L 2038.390625 926.605469 C 2039.777344 926.84375 2041.167969 927.085938 2042.546875 927.332031 C 2043.890625 927.570312 2045.234375 927.800781 2046.582031 928.050781 L 2041.144531 958.078125 " fill-opacity="1" fill-rule="nonzero"/><path fill="#545454" d="M 1708.882812 958.078125 L 1703.453125 928.050781 C 1704.761719 927.8125 1706.082031 927.582031 1707.402344 927.347656 C 1708.808594 927.097656 1710.21875 926.855469 1711.636719 926.605469 L 1716.808594 956.671875 C 1715.4375 956.921875 1714.0625 957.152344 1712.691406 957.398438 C 1711.421875 957.625 1710.152344 957.847656 1708.882812 958.078125 " fill-opacity="1" fill-rule="nonzero"/><path fill="#545454" d="M 1976.066406 948.730469 L 2493.246094 1844.492188 L 2711.992188 1465.609375 C 2702.597656 1446.441406 2692.496094 1427.488281 2681.910156 1409.148438 C 2669.984375 1388.503906 2657.085938 1368.003906 2643.550781 1348.222656 C 2627.226562 1324.34375 2609.605469 1300.988281 2591.179688 1278.800781 C 2589.492188 1276.78125 2587.785156 1274.726562 2586.058594 1272.699219 C 2585.351562 1271.859375 2584.667969 1271.054688 2583.980469 1270.253906 C 2514.769531 1189.238281 2433.003906 1121.164062 2340.964844 1067.933594 C 2248.871094 1014.859375 2149.035156 978.082031 2044.226562 958.640625 C 2043.21875 958.453125 2042.191406 958.265625 2041.152344 958.074219 C 2038.492188 957.589844 2035.851562 957.132812 2033.21875 956.671875 C 2014.371094 953.449219 1995.238281 950.792969 1976.066406 948.730469 Z M 2493.246094 1905.519531 L 1920.449219 913.414062 L 1949.28125 915.613281 C 1979.050781 917.886719 2009.039062 921.582031 2038.390625 926.609375 C 2041.144531 927.082031 2043.871094 927.554688 2046.582031 928.050781 C 2047.621094 928.238281 2048.691406 928.4375 2049.765625 928.628906 C 2158.003906 948.703125 2261.101562 986.683594 2356.21875 1041.507812 C 2451.285156 1096.484375 2535.722656 1166.78125 2607.195312 1250.460938 C 2607.941406 1251.3125 2608.648438 1252.148438 2609.34375 1252.984375 C 2611.101562 1255.050781 2612.875 1257.164062 2614.644531 1259.289062 C 2633.683594 1282.222656 2651.882812 1306.34375 2668.734375 1330.992188 C 2682.710938 1351.417969 2696.023438 1372.582031 2708.332031 1393.882812 C 2720.632812 1415.203125 2732.292969 1437.320312 2743 1459.628906 L 2746.492188 1466.886719 L 2493.246094 1905.519531 " fill-opacity="1" fill-rule="nonzero"/><g clip-path="url(#20e613e3d4)"><path fill="#545454" d="M 1123.359375 1324.351562 L 2157.707031 1324.351562 L 1938.949219 945.460938 C 1917.660156 944.019531 1896.195312 943.289062 1875.019531 943.289062 C 1851.179688 943.289062 1826.976562 944.210938 1803.070312 946.039062 C 1774.242188 948.238281 1745.210938 951.824219 1716.78125 956.679688 C 1714.175781 957.136719 1711.546875 957.597656 1708.914062 958.070312 C 1707.84375 958.261719 1706.808594 958.449219 1705.769531 958.636719 C 1601.003906 978.082031 1501.160156 1014.859375 1409.046875 1067.941406 C 1317.03125 1121.164062 1235.257812 1189.238281 1166.023438 1270.277344 C 1165.359375 1271.058594 1164.679688 1271.859375 1164 1272.664062 C 1162.25 1274.730469 1160.535156 1276.78125 1158.820312 1278.839844 C 1146.601562 1293.550781 1134.730469 1308.792969 1123.359375 1324.351562 Z M 2210.554688 1354.859375 L 1064.972656 1354.859375 L 1081.292969 1331 C 1098.144531 1306.347656 1116.335938 1282.238281 1135.367188 1259.308594 C 1137.15625 1257.171875 1138.925781 1255.046875 1140.710938 1252.949219 C 1141.394531 1252.144531 1142.101562 1251.304688 1142.804688 1250.480469 C 1214.3125 1166.785156 1298.75 1096.488281 1393.792969 1041.519531 C 1488.933594 986.6875 1592.03125 948.707031 1700.238281 928.636719 C 1701.339844 928.4375 1702.410156 928.238281 1703.480469 928.046875 C 1706.167969 927.5625 1708.882812 927.078125 1711.597656 926.605469 C 1740.996094 921.589844 1770.976562 917.894531 1800.75 915.613281 C 1825.417969 913.738281 1850.40625 912.78125 1875.019531 912.78125 C 1899.617188 912.78125 1924.605469 913.738281 1949.28125 915.613281 L 1957.304688 916.226562 L 2210.554688 1354.859375 " fill-opacity="1" fill-rule="nonzero"/></g><g clip-path="url(#9b42e1bf9b)"><path fill="#545454" d="M 1874.503906 3345.398438 C 1074.171875 3345.398438 422.304688 2693.527344 422.304688 1892.214844 C 422.304688 1090.898438 1074.171875 440.015625 1874.503906 440.015625 C 2674.835938 440.015625 3326.703125 1091.882812 3326.703125 1892.214844 C 3327.6875 2693.527344 2675.820312 3345.398438 1874.503906 3345.398438 Z M 1874.503906 464.59375 C 1086.953125 464.59375 446.886719 1104.664062 446.886719 1892.214844 C 446.886719 2679.765625 1087.9375 3320.816406 1874.503906 3320.816406 C 2661.070312 3320.816406 3303.105469 2679.765625 3303.105469 1892.214844 C 3303.105469 1104.664062 2662.054688 464.59375 1874.503906 464.59375 Z M 1874.503906 464.59375 " fill-opacity="1" fill-rule="nonzero"/></g><path stroke-linecap="round" transform="matrix(0.75, -0.000000000000000372, 0.000000000000000372, 0.75, 278.608215, 1864.125006)" fill="none" stroke-linejoin="miter" d="M 14.501548 14.499993 L 860.985966 14.499993 " stroke="#545454" stroke-width="29" stroke-opacity="1" stroke-miterlimit="4"/><path stroke-linecap="round" transform="matrix(0.75, 0.00000000000000039, -0.00000000000000039, 0.75, 2814.77565, 1864.125006)" fill="none" stroke-linejoin="miter" d="M 14.502259 14.499993 L 860.986676 14.499993 " stroke="#545454" stroke-width="29" stroke-opacity="1" stroke-miterlimit="4"/><g clip-path="url(#87096dceaa)"><path fill="#545454" d="M 1874.503906 3309.976562 C 1074.171875 3309.976562 422.304688 2658.109375 422.304688 1856.792969 C 422.304688 1055.480469 1074.171875 404.59375 1874.503906 404.59375 C 2674.835938 404.59375 3326.703125 1056.460938 3326.703125 1856.792969 C 3327.6875 2658.109375 2675.820312 3309.976562 1874.503906 3309.976562 Z M 1874.503906 429.175781 C 1086.953125 429.175781 446.886719 1069.246094 446.886719 1856.792969 C 446.886719 2644.34375 1087.9375 3285.398438 1874.503906 3285.398438 C 2661.070312 3285.398438 3303.105469 2644.34375 3303.105469 1856.792969 C 3303.105469 1069.246094 2662.054688 429.175781 1874.503906 429.175781 Z M 1874.503906 429.175781 " fill-opacity="1" fill-rule="nonzero"/></g><g fill="#545454" fill-opacity="1"><g transform="translate(713.875164, 2467.848749)"><g><path d="M 103 160.109375 L 91.296875 141.90625 L 176.859375 41.65625 C 180.566406 37.101562 185.394531 31.585938 191.34375 25.109375 C 197.300781 18.628906 200.976562 14.890625 202.375 13.890625 C 191.820312 18.441406 179.753906 22.632812 166.171875 26.46875 L 40.734375 63.3125 L 29.015625 45.09375 L 160.390625 -99.03125 L 172.9375 -79.53125 L 91.15625 8.5 C 79.65625 20.800781 68.847656 31.328125 58.734375 40.078125 C 73.222656 33.515625 88.019531 28.085938 103.125 23.796875 L 217.78125 -9.8125 L 230.34375 9.703125 L 152.265625 102.0625 C 143.296875 112.738281 132.535156 123.804688 119.984375 135.265625 C 131.117188 130.035156 145.289062 124.59375 162.5 118.9375 L 276.21875 81.03125 L 288.78125 100.53125 Z M 103 160.109375 "/></g></g></g><g fill="#545454" fill-opacity="1"><g transform="translate(870.407143, 2697.717314)"><g><path d="M 89.0625 96.03125 L 17.609375 19 L 155.796875 -109.15625 L 227.25 -32.125 L 212.96875 -18.890625 L 156.4375 -79.859375 L 111.921875 -38.5625 L 165.03125 18.703125 L 150.859375 31.84375 L 97.75 -25.421875 L 46.890625 21.734375 L 103.421875 82.703125 Z M 89.0625 96.03125 "/></g></g></g><g fill="#545454" fill-opacity="1"><g transform="translate(992.189599, 2827.024309)"><g><path d="M 138.3125 -130.609375 L 179.796875 -97.234375 C 199.273438 -81.554688 211.023438 -67.300781 215.046875 -54.46875 C 219.066406 -41.644531 216.015625 -28.941406 205.890625 -16.359375 C 198.890625 -7.660156 190.6875 -2.429688 181.28125 -0.671875 C 171.875 1.085938 161.84375 -0.9375 151.1875 -6.75 L 150.375 -5.75 C 169.601562 16.007812 171.328125 36.695312 155.546875 56.3125 C 144.992188 69.4375 132.316406 76.109375 117.515625 76.328125 C 102.710938 76.554688 87.347656 70.265625 71.421875 57.453125 L 20.1875 16.234375 Z M 104.8125 -53.984375 L 132.9375 -31.359375 C 144.988281 -21.671875 155.175781 -16.585938 163.5 -16.109375 C 171.832031 -15.640625 179.609375 -19.894531 186.828125 -28.875 C 193.460938 -37.113281 195.300781 -45.425781 192.34375 -53.8125 C 189.382812 -62.195312 181.476562 -71.5625 168.625 -81.90625 L 143.515625 -102.09375 Z M 93.171875 -39.515625 L 48.984375 15.421875 L 79.609375 40.0625 C 91.460938 49.59375 102.234375 54.472656 111.921875 54.703125 C 121.609375 54.941406 130.378906 50.175781 138.234375 40.40625 C 145.566406 31.300781 147.890625 22.140625 145.203125 12.921875 C 142.515625 3.703125 134.914062 -5.9375 122.40625 -16 Z M 93.171875 -39.515625 "/></g></g></g><g fill="#545454" fill-opacity="1"><g transform="translate(1149.425569, 2947.822936)"><g/></g></g><g fill="#545454" fill-opacity="1"><g transform="translate(1230.340085, 3001.475828)"><g><path d="M 200.46875 -11.265625 C 187.144531 16.835938 169.332031 34.710938 147.03125 42.359375 C 124.726562 50.003906 99.25 47.035156 70.59375 33.453125 L 23.40625 11.09375 L 104.125 -159.21875 L 156.3125 -134.484375 C 182.800781 -121.929688 199.898438 -104.835938 207.609375 -83.203125 C 215.328125 -61.566406 212.945312 -37.585938 200.46875 -11.265625 Z M 179.1875 -20.5 C 189.707031 -42.707031 192.0625 -62.082031 186.25 -78.625 C 180.445312 -95.175781 166.5625 -108.65625 144.59375 -119.0625 L 115.8125 -132.703125 L 51.328125 3.359375 L 75.4375 14.78125 C 99.050781 25.976562 119.550781 28.582031 136.9375 22.59375 C 154.320312 16.613281 168.40625 2.25 179.1875 -20.5 Z M 179.1875 -20.5 "/></g></g></g><g fill="#545454" fill-opacity="1"><g transform="translate(1434.554195, 3093.606414)"><g><path d="M 125.5625 37.21875 L 24.84375 7.359375 L 78.390625 -173.34375 L 179.109375 -143.484375 L 173.578125 -124.8125 L 93.875 -148.4375 L 76.625 -90.21875 L 151.515625 -68.03125 L 146.03125 -49.5 L 71.140625 -71.6875 L 51.421875 -5.1875 L 131.125 18.4375 Z M 125.5625 37.21875 "/></g></g></g><g fill="#545454" fill-opacity="1"><g transform="translate(1604.277886, 3141.757126)"><g><path d="M 138.359375 -29.328125 C 135.828125 -12.941406 127.910156 -1.082031 114.609375 6.25 C 101.304688 13.582031 84.460938 15.671875 64.078125 12.515625 C 41.992188 9.097656 25.445312 3.628906 14.4375 -3.890625 L 17.671875 -24.796875 C 24.804688 -20.378906 32.726562 -16.539062 41.4375 -13.28125 C 50.15625 -10.019531 58.929688 -7.703125 67.765625 -6.328125 C 82.210938 -4.097656 93.507812 -5.160156 101.65625 -9.515625 C 109.800781 -13.867188 114.628906 -20.925781 116.140625 -30.6875 C 117.140625 -37.132812 116.660156 -42.617188 114.703125 -47.140625 C 112.753906 -51.671875 109.015625 -56.144531 103.484375 -60.5625 C 97.953125 -64.976562 89.320312 -70.359375 77.59375 -76.703125 C 61.226562 -85.578125 49.988281 -94.832031 43.875 -104.46875 C 37.757812 -114.113281 35.757812 -125.773438 37.875 -139.453125 C 40.09375 -153.796875 47.25 -164.378906 59.34375 -171.203125 C 71.445312 -178.035156 86.375 -180.082031 104.125 -177.34375 C 122.644531 -174.476562 139.144531 -168.445312 153.625 -159.25 L 143.953125 -141.4375 C 129.585938 -150.269531 115.140625 -155.8125 100.609375 -158.0625 C 89.140625 -159.832031 79.796875 -158.753906 72.578125 -154.828125 C 65.367188 -150.898438 61.085938 -144.5625 59.734375 -135.8125 C 58.734375 -129.351562 59.101562 -123.878906 60.84375 -119.390625 C 62.59375 -114.910156 66.023438 -110.515625 71.140625 -106.203125 C 76.265625 -101.890625 84.320312 -96.742188 95.3125 -90.765625 C 113.757812 -80.796875 126.039062 -71.25 132.15625 -62.125 C 138.269531 -53.007812 140.335938 -42.078125 138.359375 -29.328125 Z M 138.359375 -29.328125 "/></g></g></g><g fill="#545454" fill-opacity="1"><g transform="translate(1773.981562, 3164.735643)"><g><path d="M 25.875 1.28125 L 35.15625 -186.953125 L 57.046875 -185.875 L 47.765625 2.359375 Z M 25.875 1.28125 "/></g></g></g><g fill="#545454" fill-opacity="1"><g transform="translate(1876.060047, 3171.669785)"><g><path d="M 101.140625 -106.578125 L 165.015625 -111.34375 L 171.84375 -19.953125 C 162.144531 -16.046875 152.210938 -12.890625 142.046875 -10.484375 C 131.878906 -8.085938 120.03125 -6.378906 106.5 -5.359375 C 78.050781 -3.234375 55.265625 -10.039062 38.140625 -25.78125 C 21.015625 -41.53125 11.316406 -64.660156 9.046875 -95.171875 C 7.578125 -114.710938 10.210938 -132.125 16.953125 -147.40625 C 23.703125 -162.6875 34.15625 -174.753906 48.3125 -183.609375 C 62.476562 -192.472656 79.460938 -197.644531 99.265625 -199.125 C 119.304688 -200.625 138.265625 -198.332031 156.140625 -192.25 L 149.078125 -172.328125 C 131.585938 -178.265625 115 -180.644531 99.3125 -179.46875 C 76.425781 -177.757812 59.0625 -169.613281 47.21875 -155.03125 C 35.382812 -140.445312 30.375 -121.070312 32.1875 -96.90625 C 34.082031 -71.539062 41.710938 -52.757812 55.078125 -40.5625 C 68.441406 -28.375 87.125 -23.175781 111.125 -24.96875 C 124.144531 -25.945312 136.753906 -28.398438 148.953125 -32.328125 L 144.625 -90.1875 L 102.59375 -87.046875 Z M 101.140625 -106.578125 "/></g></g></g><g fill="#545454" fill-opacity="1"><g transform="translate(2101.434789, 3152.117479)"><g><path d="M 167.71875 -42.953125 L 143.484375 -36.75 L 4.484375 -164.421875 L 3.484375 -164.171875 C 9.421875 -146.523438 14.304688 -130.210938 18.140625 -115.234375 L 44.71875 -11.453125 L 25.09375 -6.421875 L -21.65625 -189 L 2.328125 -195.140625 L 140.9375 -68.03125 L 141.9375 -68.28125 C 141.1875 -70.488281 138.957031 -77.613281 135.25 -89.65625 C 131.550781 -101.707031 129.113281 -110.375 127.9375 -115.65625 L 101.109375 -220.4375 L 120.96875 -225.53125 Z M 167.71875 -42.953125 "/></g></g></g><g fill="#545454" fill-opacity="1"><g transform="translate(2320.203797, 3090.068556)"><g/></g></g><g fill="#545454" fill-opacity="1"><g transform="translate(2411.27388, 3056.389221)"><g><path d="M -25.109375 -158.140625 C -22.285156 -152.921875 -18.226562 -148.6875 -12.9375 -145.4375 C -7.65625 -142.1875 0.0664062 -139.019531 10.234375 -135.9375 C 16.910156 -146.894531 20.851562 -155.804688 22.0625 -162.671875 C 23.269531 -169.546875 22.171875 -176.117188 18.765625 -182.390625 C 15.609375 -188.210938 11.085938 -191.894531 5.203125 -193.4375 C -0.671875 -194.988281 -6.851562 -194.003906 -13.34375 -190.484375 C -20.070312 -186.828125 -24.546875 -182.050781 -26.765625 -176.15625 C -28.984375 -170.257812 -28.429688 -164.253906 -25.109375 -158.140625 Z M 56.515625 -49.59375 C 74.722656 -59.476562 86.671875 -73.5 92.359375 -91.65625 L 16.78125 -112.8125 C 11.1875 -103.125 7.5625 -95.65625 5.90625 -90.40625 C 4.257812 -85.164062 3.648438 -80.164062 4.078125 -75.40625 C 4.515625 -70.65625 6.0625 -65.828125 8.71875 -60.921875 C 13.519531 -52.085938 20.25 -46.671875 28.90625 -44.671875 C 37.570312 -42.671875 46.773438 -44.3125 56.515625 -49.59375 Z M -10.515625 -49.890625 C -15.835938 -59.703125 -17.921875 -69.804688 -16.765625 -80.203125 C -15.617188 -90.609375 -10.34375 -103.351562 -0.9375 -118.4375 C -11.25 -122.132812 -18.5625 -125.207031 -22.875 -127.65625 C -27.1875 -130.101562 -31.109375 -132.957031 -34.640625 -136.21875 C -38.171875 -139.488281 -41.101562 -143.28125 -43.4375 -147.59375 C -49.582031 -158.914062 -50.675781 -169.757812 -46.71875 -180.125 C -42.769531 -190.488281 -34.191406 -199.253906 -20.984375 -206.421875 C -8.742188 -213.066406 2.59375 -215.144531 13.03125 -212.65625 C 23.476562 -210.164062 31.757812 -203.289062 37.875 -192.03125 C 42.257812 -183.945312 43.738281 -175.09375 42.3125 -165.46875 C 40.894531 -155.84375 36.160156 -144.300781 28.109375 -130.84375 L 98.28125 -111.578125 C 99.96875 -118.554688 100.363281 -125.882812 99.46875 -133.5625 C 98.582031 -141.25 96.976562 -149.296875 94.65625 -157.703125 L 113.6875 -168.03125 C 120.269531 -143.65625 121.425781 -123.070312 117.15625 -106.28125 L 168.921875 -91.703125 L 142.984375 -77.609375 L 111.0625 -86.40625 C 106.5 -73.5625 100.550781 -62.898438 93.21875 -54.421875 C 85.894531 -45.941406 76.566406 -38.628906 65.234375 -32.484375 C 49.003906 -23.671875 34.238281 -20.835938 20.9375 -23.984375 C 7.632812 -27.128906 -2.847656 -35.765625 -10.515625 -49.890625 Z M -10.515625 -49.890625 "/></g></g></g><g fill="#545454" fill-opacity="1"><g transform="translate(2602.661849, 2946.23458)"><g/></g></g><g fill="#545454" fill-opacity="1"><g transform="translate(2682.883256, 2891.551037)"><g><path d="M 65.234375 -189.90625 C 86.234375 -166.957031 96.0625 -143.710938 94.71875 -120.171875 C 93.382812 -96.628906 81.019531 -74.15625 57.625 -52.75 L 19.109375 -17.484375 L -108.140625 -156.5 L -65.546875 -195.5 C -43.921875 -215.289062 -21.632812 -224.675781 1.3125 -223.65625 C 24.257812 -222.644531 45.566406 -211.394531 65.234375 -189.90625 Z M 48.640625 -173.65625 C 32.054688 -191.78125 15.007812 -201.28125 -2.5 -202.15625 C -20.019531 -203.03125 -37.75 -195.257812 -55.6875 -178.84375 L -79.171875 -157.34375 L 22.484375 -46.28125 L 42.171875 -64.296875 C 61.441406 -81.929688 71.585938 -99.925781 72.609375 -118.28125 C 73.628906 -136.632812 65.640625 -155.09375 48.640625 -173.65625 Z M 48.640625 -173.65625 "/></g></g></g><g fill="#545454" fill-opacity="1"><g transform="translate(2845.272527, 2737.209673)"><g><path d="M 81.84375 -102.234375 L 16.1875 -20.21875 L -130.9375 -138 L -65.28125 -220.015625 L -50.078125 -207.859375 L -102.03125 -142.96875 L -54.640625 -105.015625 L -5.828125 -165.984375 L 9.265625 -153.90625 L -39.546875 -92.9375 L 14.59375 -49.59375 L 66.546875 -114.484375 Z M 81.84375 -102.234375 "/></g></g></g><g fill="#545454" fill-opacity="1"><g transform="translate(2954.511367, 2597.963394)"><g><path d="M -93.96875 -211 L -81.9375 -231.296875 L 45.5 -76.71875 L 34.453125 -58.09375 L -162.09375 -96.140625 L -150.25 -116.09375 L -23.265625 -91.140625 C -8.679688 -88.273438 5.046875 -84.726562 17.921875 -80.5 C 7.523438 -90.257812 -2.347656 -100.816406 -11.703125 -112.171875 Z M -93.96875 -211 "/></g></g></g><g fill="#545454" fill-opacity="1"><g transform="translate(842.291987, 1486.213347)"><g><path d="M 53.75 -119.421875 L 10.625 -23.625 L -161.234375 -100.984375 L -118.109375 -196.78125 L -100.359375 -188.78125 L -134.484375 -112.96875 L -79.109375 -88.046875 L -47.046875 -159.28125 L -29.421875 -151.359375 L -61.484375 -80.125 L 1.765625 -51.65625 L 35.890625 -127.46875 Z M 53.75 -119.421875 "/></g></g></g><g fill="#545454" fill-opacity="1"><g transform="translate(904.134929, 1350.036714)"><g><path d="M 13.640625 -22.03125 L -146.609375 -121.234375 L -135.078125 -139.875 L 8.28125 -51.125 L 52.046875 -121.8125 L 68.9375 -111.359375 Z M 13.640625 -22.03125 "/></g></g></g><g fill="#545454" fill-opacity="1"><g transform="translate(976.820567, 1231.275318)"><g><path d="M 103.390625 -124.75 L 86.9375 -104.90625 L -27.25 -110.3125 L -26.34375 -83.953125 L 30.515625 -36.828125 L 16.53125 -19.953125 L -128.578125 -140.21875 L -114.59375 -157.09375 L -42.625 -97.453125 L -60.046875 -222.890625 L -43.515625 -242.84375 L -28.859375 -132.25 Z M 103.390625 -124.75 "/></g></g></g><g fill="#545454" fill-opacity="1"><g transform="translate(1078.546063, 1105.637192)"><g><path d="M 81.640625 -195.375 C 101.359375 -172.550781 111.085938 -149.613281 110.828125 -126.5625 C 110.578125 -103.519531 100.175781 -83.125 79.625 -65.375 C 58.625 -47.226562 36.863281 -39.644531 14.34375 -42.625 C -8.164062 -45.613281 -29.53125 -58.816406 -49.75 -82.234375 C -69.800781 -105.453125 -79.617188 -128.390625 -79.203125 -151.046875 C -78.796875 -173.710938 -68.054688 -194.148438 -46.984375 -212.359375 C -26.503906 -230.046875 -4.890625 -237.359375 17.859375 -234.296875 C 40.609375 -231.242188 61.867188 -218.269531 81.640625 -195.375 Z M -32.015625 -97.203125 C -15.328125 -77.890625 1.4375 -66.796875 18.28125 -63.921875 C 35.132812 -61.046875 51.394531 -66.375 67.0625 -79.90625 C 82.875 -93.5625 90.515625 -108.847656 89.984375 -125.765625 C 89.453125 -142.679688 80.816406 -160.828125 64.078125 -180.203125 C 47.503906 -199.390625 30.914062 -210.472656 14.3125 -213.453125 C -2.28125 -216.429688 -18.445312 -211.125 -34.1875 -197.53125 C -49.988281 -183.882812 -57.691406 -168.515625 -57.296875 -151.421875 C -56.898438 -134.335938 -48.472656 -116.265625 -32.015625 -97.203125 Z M -32.015625 -97.203125 "/></g></g></g><g fill="#545454" fill-opacity="1"><g transform="translate(1230.389117, 971.891365)"><g><path d="M 95.171875 -53.78125 L -42.703125 -167.765625 L -43.59375 -167.25 C -36.03125 -156.332031 -27.765625 -142.941406 -18.796875 -127.078125 L 40.1875 -22.703125 L 22.546875 -12.75 L -70.1875 -176.828125 L -41.453125 -193.0625 L 87.015625 -87.078125 L 87.90625 -87.59375 L 63.8125 -252.546875 L 92.3125 -268.65625 L 185.046875 -104.578125 L 165.984375 -93.796875 L 106.234375 -199.515625 C 99.390625 -211.628906 92.46875 -225.09375 85.46875 -239.90625 L 84.5625 -239.40625 L 110.53125 -62.46875 Z M 95.171875 -53.78125 "/></g></g></g><g fill="#545454" fill-opacity="1"><g transform="translate(1433.618845, 856.46849)"><g><path d="M 104.34375 -32.578125 L -6.484375 -173 L -7.46875 -172.6875 C -2.375 -160.425781 2.890625 -145.597656 8.328125 -128.203125 L 44.0625 -13.765625 L 24.734375 -7.71875 L -31.453125 -187.625 L 0.046875 -197.46875 L 103.359375 -66.859375 L 104.34375 -67.15625 L 115.46875 -233.515625 L 146.703125 -243.265625 L 202.890625 -63.359375 L 181.984375 -56.828125 L 145.78125 -172.75 C 141.632812 -186.03125 137.703125 -200.648438 133.984375 -216.609375 L 133 -216.296875 L 121.203125 -37.84375 Z M 104.34375 -32.578125 "/></g></g></g><g fill="#545454" fill-opacity="1"><g transform="translate(1658.083366, 787.695149)"><g><path d="M 178.59375 -113.765625 C 181.75 -83.773438 176.640625 -59.390625 163.265625 -40.609375 C 149.898438 -21.835938 129.710938 -11.035156 102.703125 -8.203125 C 75.085938 -5.296875 52.894531 -11.492188 36.125 -26.796875 C 19.351562 -42.109375 9.351562 -65.148438 6.125 -95.921875 C 2.914062 -126.429688 7.945312 -150.867188 21.21875 -169.234375 C 34.5 -187.609375 54.988281 -198.25 82.6875 -201.15625 C 109.613281 -203.988281 131.539062 -197.648438 148.46875 -182.140625 C 165.394531 -166.640625 175.4375 -143.847656 178.59375 -113.765625 Z M 29.21875 -98.078125 C 31.882812 -72.691406 39.316406 -54.003906 51.515625 -42.015625 C 63.710938 -30.035156 80.109375 -25.128906 100.703125 -27.296875 C 121.472656 -29.472656 136.46875 -37.65625 145.6875 -51.84375 C 154.914062 -66.039062 158.191406 -85.875 155.515625 -111.34375 C 152.867188 -136.5625 145.582031 -155.128906 133.65625 -167.046875 C 121.726562 -178.972656 105.421875 -183.847656 84.734375 -181.671875 C 63.972656 -179.492188 48.875 -171.28125 39.4375 -157.03125 C 30 -142.78125 26.59375 -123.128906 29.21875 -98.078125 Z M 29.21875 -98.078125 "/></g></g></g><g fill="#545454" fill-opacity="1"><g transform="translate(1862.751719, 768.625521)"><g><path d="M 134.796875 -42.859375 C 133.890625 -26.304688 127.175781 -13.722656 114.65625 -5.109375 C 102.144531 3.503906 85.59375 7.25 65 6.125 C 42.6875 4.914062 25.679688 1.109375 13.984375 -5.296875 L 15.140625 -26.40625 C 22.679688 -22.726562 30.945312 -19.695312 39.9375 -17.3125 C 48.925781 -14.925781 57.882812 -13.488281 66.8125 -13 C 81.40625 -12.207031 92.539062 -14.378906 100.21875 -19.515625 C 107.894531 -24.648438 112.003906 -32.144531 112.546875 -42 C 112.898438 -48.519531 111.878906 -53.9375 109.484375 -58.25 C 107.085938 -62.5625 102.921875 -66.640625 96.984375 -70.484375 C 91.046875 -74.335938 81.9375 -78.84375 69.65625 -84 C 52.476562 -91.207031 40.367188 -99.304688 33.328125 -108.296875 C 26.285156 -117.285156 23.144531 -128.691406 23.90625 -142.515625 C 24.6875 -157.015625 30.757812 -168.257812 42.125 -176.25 C 53.5 -184.238281 68.15625 -187.742188 86.09375 -186.765625 C 104.800781 -185.742188 121.816406 -181.375 137.140625 -173.65625 L 129.28125 -154.96875 C 114.113281 -162.34375 99.191406 -166.429688 84.515625 -167.234375 C 72.921875 -167.859375 63.726562 -165.859375 56.9375 -161.234375 C 50.144531 -156.617188 46.507812 -149.890625 46.03125 -141.046875 C 45.664062 -134.523438 46.570312 -129.113281 48.75 -124.8125 C 50.9375 -120.519531 54.789062 -116.484375 60.3125 -112.703125 C 65.832031 -108.921875 74.347656 -104.601562 85.859375 -99.75 C 105.210938 -91.644531 118.378906 -83.351562 125.359375 -74.875 C 132.347656 -66.40625 135.492188 -55.734375 134.796875 -42.859375 Z M 134.796875 -42.859375 "/></g></g></g><g fill="#545454" fill-opacity="1"><g transform="translate(2012.805732, 779.042932)"><g/></g></g><g fill="#545454" fill-opacity="1"><g transform="translate(2086.340852, 788.869354)"><g><path d="M 95.59375 -72.078125 L 168.40625 -150.234375 L 191.328125 -144.140625 L 100.875 -48.8125 L 82.09375 21.828125 L 60.671875 16.140625 L 79.1875 -53.5 L 48.4375 -182.140625 L 71.609375 -175.984375 Z M 95.59375 -72.078125 "/></g></g></g><g fill="#545454" fill-opacity="1"><g transform="translate(2230.012357, 824.686345)"><g><path d="M 211.5625 -8.953125 C 199.257812 18.578125 182.617188 37.117188 161.640625 46.671875 C 140.660156 56.222656 117.773438 55.457031 92.984375 44.375 C 67.640625 33.050781 51.539062 16.566406 44.6875 -5.078125 C 37.84375 -26.734375 40.734375 -51.679688 53.359375 -79.921875 C 65.878906 -107.929688 82.488281 -126.5625 103.1875 -135.8125 C 123.882812 -145.0625 146.941406 -144.003906 172.359375 -132.640625 C 197.078125 -121.597656 212.875 -105.125 219.75 -83.21875 C 226.632812 -61.320312 223.90625 -36.566406 211.5625 -8.953125 Z M 74.4375 -70.21875 C 64.03125 -46.914062 61.097656 -27.023438 65.640625 -10.546875 C 70.179688 5.929688 81.90625 18.394531 100.8125 26.84375 C 119.882812 35.363281 136.96875 35.789062 152.0625 28.125 C 167.15625 20.46875 179.925781 4.953125 190.375 -18.421875 C 200.71875 -41.566406 203.71875 -61.285156 199.375 -77.578125 C 195.03125 -93.867188 183.363281 -106.257812 164.375 -114.75 C 145.3125 -123.269531 128.125 -123.722656 112.8125 -116.109375 C 97.507812 -108.503906 84.71875 -93.207031 74.4375 -70.21875 Z M 74.4375 -70.21875 "/></g></g></g><g fill="#545454" fill-opacity="1"><g transform="translate(2415.949394, 908.265557)"><g><path d="M 245.203125 -60.78125 L 176.4375 39.921875 C 164.320312 57.660156 149.441406 67.945312 131.796875 70.78125 C 114.148438 73.613281 95.957031 68.632812 77.21875 55.84375 C 58.476562 43.050781 47.472656 28.046875 44.203125 10.828125 C 40.929688 -6.390625 45.398438 -23.941406 57.609375 -41.828125 L 126.09375 -142.109375 L 144.171875 -129.765625 L 74.8125 -28.203125 C 65.945312 -15.210938 62.6875 -2.816406 65.03125 8.984375 C 67.382812 20.785156 75.445312 31.382812 89.21875 40.78125 C 102.351562 49.75 114.851562 53.160156 126.71875 51.015625 C 138.59375 48.867188 148.988281 41.265625 157.90625 28.203125 L 227.109375 -73.140625 Z M 245.203125 -60.78125 "/></g></g></g><g fill="#545454" fill-opacity="1"><g transform="translate(2574.049051, 1018.470639)"><g><path d="M 130.8125 53.8125 C 119.46875 65.914062 106.234375 71.238281 91.109375 69.78125 C 75.984375 68.332031 60.894531 60.5625 45.84375 46.46875 C 29.539062 31.195312 18.96875 17.347656 14.125 4.921875 L 28.578125 -10.515625 C 31.972656 -2.847656 36.347656 4.785156 41.703125 12.390625 C 47.066406 20.003906 53.007812 26.863281 59.53125 32.96875 C 70.195312 42.957031 80.125 48.453125 89.3125 49.453125 C 98.5 50.460938 106.46875 47.363281 113.21875 40.15625 C 117.6875 35.394531 120.390625 30.59375 121.328125 25.75 C 122.265625 20.914062 121.691406 15.113281 119.609375 8.34375 C 117.535156 1.582031 113.445312 -7.722656 107.34375 -19.578125 C 98.820312 -36.128906 94.753906 -50.109375 95.140625 -61.515625 C 95.523438 -72.929688 100.453125 -83.691406 109.921875 -93.796875 C 119.847656 -104.398438 131.734375 -109.101562 145.578125 -107.90625 C 159.421875 -106.71875 172.898438 -99.988281 186.015625 -87.71875 C 199.691406 -74.90625 209.910156 -60.617188 216.671875 -44.859375 L 198.65625 -35.59375 C 191.757812 -51 182.945312 -63.726562 172.21875 -73.78125 C 163.75 -81.707031 155.425781 -86.082031 147.25 -86.90625 C 139.082031 -87.726562 131.972656 -84.910156 125.921875 -78.453125 C 121.460938 -73.679688 118.6875 -68.953125 117.59375 -64.265625 C 116.5 -59.578125 116.847656 -54.007812 118.640625 -47.5625 C 120.441406 -41.125 124.191406 -32.335938 129.890625 -21.203125 C 139.503906 -2.566406 144.265625 12.238281 144.171875 23.21875 C 144.078125 34.195312 139.625 44.394531 130.8125 53.8125 Z M 130.8125 53.8125 "/></g></g></g><g fill="#545454" fill-opacity="1"><g transform="translate(2681.5248, 1119.36209)"><g><path d="M 122.46875 70.796875 C 109.613281 81.273438 95.785156 84.785156 80.984375 81.328125 C 66.191406 77.867188 52.273438 68.148438 39.234375 52.171875 C 25.109375 34.859375 16.476562 19.722656 13.34375 6.765625 L 29.71875 -6.59375 C 32.070312 1.457031 35.394531 9.609375 39.6875 17.859375 C 43.976562 26.109375 48.945312 33.695312 54.59375 40.625 C 63.832031 51.945312 72.9375 58.71875 81.90625 60.9375 C 90.882812 63.164062 99.195312 61.160156 106.84375 54.921875 C 111.90625 50.796875 115.222656 46.394531 116.796875 41.71875 C 118.367188 37.039062 118.578125 31.210938 117.421875 24.234375 C 116.273438 17.253906 113.460938 7.488281 108.984375 -5.0625 C 102.765625 -22.613281 100.609375 -37.019531 102.515625 -48.28125 C 104.421875 -59.539062 110.738281 -69.546875 121.46875 -78.296875 C 132.71875 -87.472656 145.125 -90.546875 158.6875 -87.515625 C 172.25 -84.492188 184.703125 -76.023438 196.046875 -62.109375 C 207.890625 -47.585938 216.113281 -32.066406 220.71875 -15.546875 L 201.625 -8.765625 C 196.851562 -24.941406 189.820312 -38.726562 180.53125 -50.125 C 173.195312 -59.113281 165.535156 -64.5625 157.546875 -66.46875 C 149.554688 -68.382812 142.132812 -66.546875 135.28125 -60.953125 C 130.21875 -56.828125 126.832031 -52.515625 125.125 -48.015625 C 123.414062 -43.515625 123.019531 -37.945312 123.9375 -31.3125 C 124.851562 -24.6875 127.394531 -15.476562 131.5625 -3.6875 C 138.601562 16.082031 141.34375 31.398438 139.78125 42.265625 C 138.226562 53.128906 132.457031 62.640625 122.46875 70.796875 Z M 122.46875 70.796875 "/></g></g></g><g fill="#545454" fill-opacity="1"><g transform="translate(2774.581356, 1233.594701)"><g><path d="M 68.40625 111.6875 L 13.53125 22.09375 L 174.25 -76.34375 L 229.125 13.25 L 212.515625 23.40625 L 169.09375 -47.5 L 117.3125 -15.78125 L 158.109375 50.828125 L 141.640625 60.921875 L 100.84375 -5.6875 L 41.6875 30.546875 L 85.109375 101.453125 Z M 68.40625 111.6875 "/></g></g></g><g fill="#545454" fill-opacity="1"><g transform="translate(2852.269909, 1361.430586)"><g><path d="M 19.4375 43.703125 L 10.53125 23.671875 L 182.734375 -52.921875 L 225.4375 43.0625 L 207.640625 50.96875 L 173.84375 -24.984375 L 110.828125 3.046875 L 142.578125 74.40625 L 124.796875 82.328125 L 93.046875 10.96875 Z M 19.4375 43.703125 "/></g></g></g><path fill="#ffffff" d="M 1574.734375 2490.710938 C 1530.8125 2408.9375 1495.871094 2321.972656 1470.683594 2231.464844 L 1005.605469 2231.464844 C 1044.722656 2326.65625 1098.898438 2414.125 1165.355469 2490.710938 L 1574.734375 2490.710938 " fill-opacity="1" fill-rule="nonzero"/><path fill="#ffffff" d="M 2175.007812 2490.710938 L 2584.511719 2490.710938 C 2651.09375 2414.125 2705.148438 2326.65625 2744.390625 2231.464844 L 2279.1875 2231.464844 C 2253.996094 2321.972656 2218.929688 2408.9375 2175.007812 2490.710938 " fill-opacity="1" fill-rule="nonzero"/><path fill="#ffffff" d="M 1574.734375 1259.285156 L 1165.355469 1259.285156 C 1098.898438 1335.867188 1044.722656 1423.339844 1005.605469 1518.53125 L 1470.683594 1518.53125 C 1495.871094 1428.023438 1530.8125 1341.058594 1574.734375 1259.285156 " fill-opacity="1" fill-rule="nonzero"/><g clip-path="url(#a29db759be)"><path fill="#ffffff" d="M 2586.789062 2045.507812 C 2582.992188 2059.558594 2570.460938 2069.179688 2555.902344 2069.433594 C 2555.777344 2069.433594 2555.648438 2069.433594 2555.523438 2069.433594 C 2541.21875 2069.433594 2528.558594 2060.066406 2524.507812 2046.269531 L 2458.304688 1825.753906 L 2392.101562 2046.269531 C 2388.050781 2060.066406 2375.390625 2069.433594 2361.085938 2069.433594 C 2360.960938 2069.433594 2360.835938 2069.433594 2360.707031 2069.433594 C 2346.148438 2069.179688 2333.617188 2059.558594 2329.820312 2045.507812 L 2232.601562 1689.042969 L 2295.136719 1672.082031 L 2362.605469 1919.304688 L 2427.292969 1703.726562 C 2431.34375 1689.929688 2444 1680.5625 2458.304688 1680.5625 C 2472.609375 1680.5625 2485.269531 1689.929688 2489.320312 1703.726562 L 2554.003906 1919.304688 L 2621.472656 1672.082031 L 2684.007812 1689.042969 Z M 2003.480469 2045.507812 C 1999.683594 2059.558594 1987.152344 2069.179688 1972.59375 2069.433594 C 1972.46875 2069.433594 1972.34375 2069.433594 1972.214844 2069.433594 C 1957.910156 2069.433594 1945.253906 2060.066406 1941.203125 2046.269531 L 1874.996094 1825.753906 L 1808.792969 2046.269531 C 1804.742188 2060.066406 1792.082031 2069.433594 1777.78125 2069.433594 C 1777.652344 2069.433594 1777.527344 2069.433594 1777.398438 2069.433594 C 1762.84375 2069.179688 1750.308594 2059.558594 1746.511719 2045.507812 L 1649.296875 1689.042969 L 1711.828125 1672.082031 L 1779.296875 1919.304688 L 1843.984375 1703.726562 C 1848.035156 1689.929688 1860.691406 1680.5625 1874.996094 1680.5625 C 1889.300781 1680.5625 1901.960938 1689.929688 1906.011719 1703.726562 L 1970.695312 1919.304688 L 2038.167969 1672.082031 L 2100.699219 1689.042969 Z M 1420.175781 2045.507812 C 1416.378906 2059.558594 1403.84375 2069.179688 1389.289062 2069.433594 C 1389.160156 2069.433594 1389.035156 2069.433594 1388.90625 2069.433594 C 1374.605469 2069.433594 1361.945312 2060.066406 1357.894531 2046.269531 L 1291.691406 1825.753906 L 1225.484375 2046.269531 C 1221.433594 2060.066406 1208.777344 2069.433594 1194.472656 2069.433594 C 1194.34375 2069.433594 1194.21875 2069.433594 1194.09375 2069.433594 C 1179.535156 2069.179688 1167.003906 2059.558594 1163.207031 2045.507812 L 1065.988281 1689.042969 L 1128.519531 1672.082031 L 1195.992188 1919.304688 L 1260.675781 1703.726562 C 1264.726562 1689.929688 1277.386719 1680.5625 1291.691406 1680.5625 C 1305.992188 1680.5625 1318.652344 1689.929688 1322.703125 1703.726562 L 1387.390625 1919.304688 L 1454.859375 1672.082031 L 1517.390625 1689.042969 Z M 2746.289062 1523.214844 C 2754.261719 1542.964844 2761.730469 1562.964844 2768.3125 1583.34375 L 981.554688 1583.34375 C 988.261719 1562.964844 995.730469 1542.964844 1003.707031 1523.214844 C 959.65625 1631.828125 935.222656 1750.5625 935.222656 1874.996094 C 935.222656 1999.429688 959.65625 2118.167969 1003.707031 2226.78125 C 995.730469 2207.03125 988.261719 2187.03125 981.554688 2166.652344 L 2768.3125 2166.652344 C 2761.730469 2187.03125 2754.261719 2207.03125 2746.289062 2226.78125 C 2790.214844 2118.167969 2814.769531 1999.429688 2814.769531 1874.996094 C 2814.769531 1750.5625 2790.214844 1631.828125 2746.289062 1523.214844 " fill-opacity="1" fill-rule="nonzero"/></g><path fill="#ffffff" d="M 2175.007812 1259.285156 C 2218.929688 1341.058594 2253.996094 1428.023438 2279.1875 1518.53125 L 2744.390625 1518.53125 C 2705.148438 1423.339844 2651.09375 1335.867188 2584.511719 1259.285156 L 2175.007812 1259.285156 " fill-opacity="1" fill-rule="nonzero"/><path fill="#ffffff" d="M 1611.320312 2555.523438 L 1227.382812 2555.523438 C 1384.730469 2705.402344 1593.976562 2801.480469 1825.503906 2813.503906 C 1743.222656 2738.691406 1670.816406 2651.980469 1611.320312 2555.523438 " fill-opacity="1" fill-rule="nonzero"/><path fill="#ffffff" d="M 2060.574219 2555.523438 L 1689.042969 2555.523438 C 1742.335938 2635.527344 1804.363281 2708.820312 1874.746094 2771.859375 C 1945.125 2708.820312 2007.28125 2635.652344 2060.574219 2555.523438 " fill-opacity="1" fill-rule="nonzero"/><path fill="#ffffff" d="M 1923.859375 2813.503906 C 2155.511719 2801.605469 2364.886719 2705.652344 2522.484375 2555.523438 L 2138.296875 2555.523438 C 2078.800781 2651.980469 2006.140625 2738.820312 1923.859375 2813.503906 " fill-opacity="1" fill-rule="nonzero"/><path fill="#ffffff" d="M 2212.601562 2231.464844 L 1537.394531 2231.464844 C 1564.230469 2322.605469 1602.203125 2409.570312 1648.914062 2490.710938 L 2100.699219 2490.710938 C 2147.535156 2409.570312 2185.640625 2322.605469 2212.601562 2231.464844 " fill-opacity="1" fill-rule="nonzero"/><path fill="#ffffff" d="M 2138.296875 1194.472656 L 2522.484375 1194.472656 C 2364.886719 1044.339844 2155.511719 948.390625 1923.859375 936.488281 C 2006.140625 1011.175781 2078.800781 1098.015625 2138.296875 1194.472656 " fill-opacity="1" fill-rule="nonzero"/><path fill="#ffffff" d="M 1537.394531 1518.53125 L 2212.601562 1518.53125 C 2185.640625 1427.390625 2147.535156 1340.425781 2100.699219 1259.285156 L 1648.914062 1259.285156 C 1602.203125 1340.425781 1564.230469 1427.390625 1537.394531 1518.53125 " fill-opacity="1" fill-rule="nonzero"/><path fill="#ffffff" d="M 1825.503906 936.488281 C 1593.976562 948.515625 1384.730469 1044.59375 1227.382812 1194.472656 L 1611.320312 1194.472656 C 1670.816406 1098.140625 1743.222656 1011.300781 1825.503906 936.488281 " fill-opacity="1" fill-rule="nonzero"/><path fill="#ffffff" d="M 1689.042969 1194.472656 L 2060.574219 1194.472656 C 2007.28125 1114.34375 1945.125 1041.175781 1874.746094 978.261719 C 1804.363281 1041.175781 1742.335938 1114.46875 1689.042969 1194.472656 " fill-opacity="1" fill-rule="nonzero"/><path fill="#545454" d="M 1194.09375 2069.433594 C 1194.21875 2069.433594 1194.34375 2069.433594 1194.472656 2069.433594 C 1208.777344 2069.433594 1221.433594 2060.066406 1225.484375 2046.269531 L 1291.691406 1825.753906 L 1357.894531 2046.269531 C 1361.945312 2060.066406 1374.605469 2069.433594 1388.90625 2069.433594 C 1389.035156 2069.433594 1389.160156 2069.433594 1389.289062 2069.433594 C 1403.84375 2069.179688 1416.378906 2059.558594 1420.175781 2045.507812 L 1517.390625 1689.042969 L 1454.859375 1672.082031 L 1387.390625 1919.304688 L 1322.703125 1703.726562 C 1318.652344 1689.929688 1305.992188 1680.5625 1291.691406 1680.5625 C 1277.386719 1680.5625 1264.726562 1689.929688 1260.675781 1703.726562 L 1195.992188 1919.304688 L 1128.519531 1672.082031 L 1065.988281 1689.042969 L 1163.207031 2045.507812 C 1167.003906 2059.558594 1179.535156 2069.179688 1194.09375 2069.433594 " fill-opacity="1" fill-rule="nonzero"/><path fill="#545454" d="M 1777.398438 2069.433594 C 1777.527344 2069.433594 1777.652344 2069.433594 1777.78125 2069.433594 C 1792.082031 2069.433594 1804.742188 2060.066406 1808.792969 2046.269531 L 1874.996094 1825.753906 L 1941.203125 2046.269531 C 1945.253906 2060.066406 1957.910156 2069.433594 1972.214844 2069.433594 C 1972.34375 2069.433594 1972.46875 2069.433594 1972.59375 2069.433594 C 1987.152344 2069.179688 1999.683594 2059.558594 2003.480469 2045.507812 L 2100.699219 1689.042969 L 2038.167969 1672.082031 L 1970.695312 1919.304688 L 1906.011719 1703.726562 C 1901.960938 1689.929688 1889.300781 1680.5625 1874.996094 1680.5625 C 1860.691406 1680.5625 1848.035156 1689.929688 1843.984375 1703.726562 L 1779.296875 1919.304688 L 1711.828125 1672.082031 L 1649.296875 1689.042969 L 1746.511719 2045.507812 C 1750.308594 2059.558594 1762.84375 2069.179688 1777.398438 2069.433594 " fill-opacity="1" fill-rule="nonzero"/><path fill="#545454" d="M 2360.707031 2069.433594 C 2360.835938 2069.433594 2360.960938 2069.433594 2361.085938 2069.433594 C 2375.390625 2069.433594 2388.050781 2060.066406 2392.101562 2046.269531 L 2458.304688 1825.753906 L 2524.507812 2046.269531 C 2528.558594 2060.066406 2541.21875 2069.433594 2555.523438 2069.433594 C 2555.648438 2069.433594 2555.777344 2069.433594 2555.902344 2069.433594 C 2570.460938 2069.179688 2582.992188 2059.558594 2586.789062 2045.507812 L 2684.007812 1689.042969 L 2621.472656 1672.082031 L 2554.003906 1919.304688 L 2489.320312 1703.726562 C 2485.269531 1689.929688 2472.609375 1680.5625 2458.304688 1680.5625 C 2444 1680.5625 2431.34375 1689.929688 2427.292969 1703.726562 L 2362.605469 1919.304688 L 2295.136719 1672.082031 L 2232.601562 1689.042969 L 2329.820312 2045.507812 C 2333.617188 2059.558594 2346.148438 2069.179688 2360.707031 2069.433594 " fill-opacity="1" fill-rule="nonzero"/><g clip-path="url(#ffe8749190)"><path fill="#545454" d="M 2100.699219 2490.710938 L 1648.914062 2490.710938 C 1602.203125 2409.570312 1564.230469 2322.605469 1537.394531 2231.464844 L 2212.601562 2231.464844 C 2185.640625 2322.605469 2147.535156 2409.570312 2100.699219 2490.710938 Z M 1874.746094 2771.859375 C 1804.363281 2708.820312 1742.335938 2635.527344 1689.042969 2555.523438 L 2060.574219 2555.523438 C 2007.28125 2635.652344 1945.125 2708.820312 1874.746094 2771.859375 Z M 2584.511719 2490.710938 L 2175.007812 2490.710938 C 2218.929688 2408.9375 2253.996094 2321.972656 2279.1875 2231.464844 L 2744.515625 2231.464844 C 2753.25 2210.195312 2761.226562 2188.550781 2768.3125 2166.652344 L 981.554688 2166.652344 C 988.769531 2188.550781 996.746094 2210.195312 1005.480469 2231.464844 L 1470.683594 2231.464844 C 1495.871094 2321.972656 1530.8125 2408.9375 1574.734375 2490.710938 L 1165.355469 2490.710938 C 1184.976562 2513.371094 1205.613281 2534.890625 1227.382812 2555.523438 L 1611.320312 2555.523438 C 1670.816406 2651.980469 1743.222656 2738.691406 1825.503906 2813.503906 C 1841.832031 2814.390625 1858.414062 2814.769531 1874.996094 2814.769531 C 1891.453125 2814.769531 1907.65625 2814.390625 1923.859375 2813.503906 C 2006.140625 2738.820312 2078.800781 2651.980469 2138.296875 2555.523438 L 2522.609375 2555.523438 C 2544.257812 2534.890625 2564.890625 2513.371094 2584.511719 2490.710938 " fill-opacity="1" fill-rule="nonzero"/></g><g clip-path="url(#36b2cd247c)"><path fill="#545454" d="M 1648.914062 1259.285156 L 2100.699219 1259.285156 C 2147.535156 1340.425781 2185.640625 1427.390625 2212.601562 1518.53125 L 1537.394531 1518.53125 C 1564.230469 1427.390625 1602.203125 1340.425781 1648.914062 1259.285156 Z M 1874.746094 978.261719 C 1945.125 1041.175781 2007.28125 1114.34375 2060.574219 1194.472656 L 1689.042969 1194.472656 C 1742.335938 1114.46875 1804.363281 1041.175781 1874.746094 978.261719 Z M 1470.683594 1518.53125 L 1005.480469 1518.53125 C 996.746094 1539.796875 988.769531 1561.445312 981.554688 1583.34375 L 2768.3125 1583.34375 C 2761.226562 1561.445312 2753.25 1539.796875 2744.515625 1518.53125 L 2279.1875 1518.53125 C 2253.996094 1428.023438 2218.929688 1341.058594 2175.007812 1259.285156 L 2584.511719 1259.285156 C 2564.890625 1236.625 2544.257812 1215.105469 2522.609375 1194.472656 L 2138.296875 1194.472656 C 2078.800781 1098.015625 2006.140625 1011.175781 1923.859375 936.488281 C 1907.65625 935.730469 1891.453125 935.222656 1874.996094 935.222656 C 1858.414062 935.222656 1841.832031 935.730469 1825.503906 936.488281 C 1743.222656 1011.300781 1670.816406 1098.140625 1611.320312 1194.472656 L 1227.382812 1194.472656 C 1205.613281 1215.105469 1184.976562 1236.625 1165.355469 1259.285156 L 1574.734375 1259.285156 C 1530.8125 1341.058594 1495.871094 1428.023438 1470.683594 1518.53125 " fill-opacity="1" fill-rule="nonzero"/></g></svg>